<svg xmlns="http://www.w3.org/2000/svg" width="50" height="50" viewBox="0 0 51.006 60.006">
  <g id="coronavirus-covid19-virus-insurance-protect" transform="translate(-7 -2)" style="isolation: isolate">
    <path id="Path_18" data-name="Path 18"
      d="M53,44a1.993,1.993,0,0,0-1.722,1h-1.42a3.915,3.915,0,0,0-.425-1.019l1.006-1.006a2,2,0,1,0-1.414-1.414l-1.006,1.006A3.915,3.915,0,0,0,47,42.142v-1.42a2,2,0,1,0-2,0v1.42a3.915,3.915,0,0,0-1.019.425l-1.006-1.006a1.993,1.993,0,1,0-1.925,1.488,2.016,2.016,0,0,0,.511-.074l1.006,1.006A3.915,3.915,0,0,0,42.142,45h-1.42a2,2,0,1,0,0,2h1.42a3.915,3.915,0,0,0,.425,1.019l-1.006,1.006a2,2,0,1,0,1.414,1.414l1.006-1.006A3.915,3.915,0,0,0,45,49.858v1.42a2,2,0,1,0,2,0v-1.42a3.915,3.915,0,0,0,1.019-.425l1.006,1.006a2,2,0,1,0,1.414-1.414l-1.006-1.006A3.915,3.915,0,0,0,49.858,47h1.42A2,2,0,1,0,53,44Zm-7,4a2,2,0,1,1,2-2A2,2,0,0,1,46,48Z"
      fill="#fff" />
    <path id="Path_19" data-name="Path 19"
      d="M55.155,38.26A36.74,36.74,0,0,0,57,26.75V11a1,1,0,0,0-.684-.949l-24-8a1,1,0,0,0-.632,0l-24,8A1,1,0,0,0,7,11V26.75a36.8,36.8,0,0,0,20.453,33.1l4.1,2.05a1,1,0,0,0,.894,0l4.1-2.05a36.919,36.919,0,0,0,4.714-2.824A11.989,11.989,0,0,0,55.155,38.26Zm-19.5,19.8L32,59.882l-3.653-1.826A34.812,34.812,0,0,1,9,26.75V11.721L32,4.054l23,7.667V26.75a34.787,34.787,0,0,1-1.443,9.94,11.991,11.991,0,0,0-3.595-2A31.344,31.344,0,0,0,51,26.75V15.32a1,1,0,0,0-.684-.949l-18-6a1,1,0,0,0-.632,0l-18,6A1,1,0,0,0,13,15.32V26.75A30.817,30.817,0,0,0,30.133,54.475l1.42.71a1,1,0,0,0,.894,0l1.424-.712c.852-.43,1.669-.9,2.464-1.39a12.09,12.09,0,0,0,2.937,2.847,34.9,34.9,0,0,1-3.619,2.126ZM49,26.75a29.325,29.325,0,0,1-.973,7.435,11.97,11.97,0,0,0-12.738,17.2c-.747.459-1.516.9-2.316,1.306L32,53.172l-.973-.486A28.827,28.827,0,0,1,15,26.75V16.041l17-5.667,17,5.667ZM46,56A10,10,0,1,1,56,46,10,10,0,0,1,46,56Z"
      fill="#fff" />
    <path id="Path_20" data-name="Path 20"
      d="M23.636,25.565a1.029,1.029,0,0,0-1.414,0l-2.828,2.829a1,1,0,0,0,0,1.414l9.9,9.9a1,1,0,0,0,1.414,0L46.849,23.565a1,1,0,0,0,0-1.414l-2.828-2.829a1.031,1.031,0,0,0-1.415,0L30,31.929Zm19.677-4.122,1.415,1.415L30,37.586,21.515,29.1l1.414-1.415,6.364,6.364a1.029,1.029,0,0,0,1.414,0Z"
      fill="#fff" />
  </g>
</svg>