<svg xmlns="http://www.w3.org/2000/svg" width="50" height="50" viewBox="0 0 54 57.632">
  <g id="delivery" transform="translate(-3 -3.368)" style="isolation: isolate">
    <circle id="Ellipse_4" data-name="Ellipse 4" cx="2.5" cy="2.5" r="2.5" transform="translate(51 8)" fill="none"
      stroke="#fff" stroke-linecap="round" stroke-linejoin="round" stroke-width="2" />
    <path id="Path_21" data-name="Path 21" d="M55.632,20.5A1.132,1.132,0,1,1,54.5,19.368,1.132,1.132,0,0,1,55.632,20.5Z"
      fill="#fff" />
    <path id="Path_22" data-name="Path 22" d="M43.632,11.5A1.132,1.132,0,1,1,42.5,10.368,1.132,1.132,0,0,1,43.632,11.5Z"
      fill="#fff" />
    <path id="Path_23" data-name="Path 23" d="M29.632,7.5A1.132,1.132,0,1,1,28.5,6.368,1.132,1.132,0,0,1,29.632,7.5Z"
      fill="#fff" />
    <path id="Path_24" data-name="Path 24" d="M35.632,4.5A1.132,1.132,0,1,1,34.5,3.368,1.132,1.132,0,0,1,35.632,4.5Z"
      fill="#fff" />
    <path id="Path_25" data-name="Path 25" d="M12.632,15.5A1.132,1.132,0,1,1,11.5,14.368,1.132,1.132,0,0,1,12.632,15.5Z"
      fill="#fff" />
    <path id="Path_26" data-name="Path 26" d="M10,39.272V60H51V39.311" fill="none" stroke="#fff" stroke-linecap="round"
      stroke-linejoin="round" stroke-width="2" />
    <path id="Path_27" data-name="Path 27" d="M4,39H32l5-8H10Z" fill="none" stroke="#fff" stroke-linecap="round"
      stroke-linejoin="round" stroke-width="2" />
    <path id="Path_28" data-name="Path 28" d="M56,39H42l-5-8H51Z" fill="none" stroke="#fff" stroke-linecap="round"
      stroke-linejoin="round" stroke-width="2" />
    <rect id="Rectangle_15" data-name="Rectangle 15" width="14" height="5" rx="2.5" transform="translate(16 51)"
      fill="none" stroke="#fff" stroke-linecap="round" stroke-linejoin="round" stroke-width="2" />
    <line id="Line_2" data-name="Line 2" x2="7" transform="translate(16 48)" fill="none" stroke="#fff"
      stroke-linecap="round" stroke-linejoin="round" stroke-width="2" />
    <line id="Line_3" data-name="Line 3" x2="3" transform="translate(16 45)" fill="none" stroke="#fff"
      stroke-linecap="round" stroke-linejoin="round" stroke-width="2" />
    <path id="Path_29" data-name="Path 29" d="M45.068,26.26s.009-4.4,5.893-5.476" fill="none" stroke="#fff"
      stroke-linecap="round" stroke-linejoin="round" stroke-width="2" />
    <path id="Path_30" data-name="Path 30" d="M19.744,7.489a5.645,5.645,0,0,1,2.6,5.408" fill="none" stroke="#fff"
      stroke-linecap="round" stroke-linejoin="round" stroke-width="2" />
    <path id="Path_31" data-name="Path 31" d="M15,16s5,1,5,5" fill="none" stroke="#fff" stroke-linecap="round"
      stroke-linejoin="round" stroke-width="2" />
    <circle id="Ellipse_5" data-name="Ellipse 5" cx="6.5" cy="6.5" r="6.5" transform="translate(25 12)" fill="none"
      stroke="#fff" stroke-linecap="round" stroke-linejoin="round" stroke-width="2" />
    <line id="Line_4" data-name="Line 4" x1="5" y2="5" transform="translate(29.03 15.97)" fill="none" stroke="#fff"
      stroke-linecap="round" stroke-linejoin="round" stroke-width="2" />
    <circle id="Ellipse_6" data-name="Ellipse 6" cx="1.132" cy="1.132" r="1.132" transform="translate(28.398 15.338)"
      fill="#fff" />
    <circle id="Ellipse_7" data-name="Ellipse 7" cx="1.132" cy="1.132" r="1.132" transform="translate(32.398 19.338)"
      fill="#fff" />
    <path id="Path_32" data-name="Path 32" d="M7,22s8-1,11,4" fill="none" stroke="#fff" stroke-linecap="round"
      stroke-linejoin="round" stroke-width="2" />
    <path id="Path_33" data-name="Path 33" d="M41,23s1-5,7-9" fill="none" stroke="#fff" stroke-linecap="round"
      stroke-linejoin="round" stroke-width="2" />
    <line id="Line_5" data-name="Line 5" y1="29" transform="translate(37 31)" fill="none" stroke="#fff"
      stroke-linejoin="round" stroke-width="2" />
  </g>
</svg>